<?xml version="1.0" encoding="UTF-8" standalone="no"?>
<svg
   xmlns:dc="http://purl.org/dc/elements/1.1/"
   xmlns:cc="http://creativecommons.org/ns#"
   xmlns:rdf="http://www.w3.org/1999/02/22-rdf-syntax-ns#"
   xmlns:svg="http://www.w3.org/2000/svg"
   xmlns="http://www.w3.org/2000/svg"
   id="svg4"
   xml:space="preserve"
   enable-background="new 0 0 200 200"
   viewBox="0 0 200 200"
   y="0px"
   x="0px"
   version="1.1"><metadata
     id="metadata10"><rdf:RDF><cc:Work
         rdf:about=""><dc:format>image/svg+xml</dc:format><dc:type
           rdf:resource="http://purl.org/dc/dcmitype/StillImage" /></cc:Work></rdf:RDF></metadata><defs
     id="defs8" /><path
     id="path2"
     d="m49.846 40c-1.1146 0.49536-1.7336 0.99097-1.8574 1.4863v0.74219l0.3711 3.7148-0.3711 1.8594 0.3711 2.5996v0.3711l-0.3711 0.37305 0.3711 1.4844-0.3711 4.0879 0.3711 1.8574-0.3711 1.1133 0.3711 4.0879 2.5996 2.2285v0.3711l-2.2285-0.74219-0.37109 1.8574 1.1152 3.3437-1.1152 0.3711v0.37109l0.37109 2.2305-0.74219 2.2285 0.74219 2.2285v0.37305l-0.37109 0.37109h0.37109v0.3711l-0.37109 0.37109v1.4863l0.74219 0.74219h0.37305l0.37109-0.37109c0-0.74304 0.24684-1.1133 0.74219-1.1133l2.6016 1.4844c0.74302-0.61919 1.1133-1.3616 1.1133-2.2285v-0.369h-0.742v-0.3711h1.1152l0.3711 1.8574 1.8574-0.3711h0.3711l0.3711 0.3711 1.4863-1.4863v-0.74219l-1.1133-0.37305v-0.3711l0.37109-0.3711v-0.37109l-1.1152-1.4863v-0.3711h1.1152v-1.1152l-0.37109-0.37109 0.74219-0.74414-1.1152-2.2285 0.37305-2.6016v-0.3711h-1.1152l-0.37109 0.3711v-1.1133c0-0.80495 0.37025-1.6728 1.1133-2.6016-0.99071 0-1.4863-0.74245-1.4863-2.2285h-0.74219c-1.2384 0.68111-1.8574 1.4236-1.8574 2.2285h-2.2285c0-1.3622 0.61904-2.3515 1.8574-2.9707l-1.1152-2.2305 0.3711-1.4863-1.1133-1.4844 1.1133-1.8594 1.4863 1.4863v0.74414l-0.74219 1.1133v0.37305l0.74219 0.74219h0.74414l1.1133-0.74219 1.1152 0.74219h0.3711l0.3711-0.3711-0.3711-2.6016 0.3711-1.8574-0.3711-1.1133h0.3711v-0.74414h0.37305l0.74219 3.3437-0.3711 3.7148c0 0.80495 0.37025 1.6728 1.1133 2.6016v0.37109l-1.1133 0.3711 1.4863 4.0879-1.1152 1.8574 0.74219 1.8574-0.3711 2.5996c0 0.49536 0.37221 0.74414 1.1152 0.74414v0.37109l-0.74414 1.1152 0.74414 2.2285-0.74414 1.1152v0.74219l1.1152 0.37109-0.37109 1.1152 1.1133 0.37109v1.1152h-0.37l-1.1133 1.1133h-0.37305c0-1.1146-0.49368-1.857-1.4844-2.2285-3.9628 1.7957-5.9453 3.9016-5.9453 6.3164l0.3711 1.1133v0.37305l-1.1133-0.37305c-1.9814 0-2.9727 0.7444-2.9727 2.2305l0.37109 0.3711v1.4863l-0.37109 0.37109 0.37109 0.3711v1.8574l-0.37109 0.37305 0.37109 0.3711v0.37109l1.1152-0.37109h0.3711l-1.8574 4.8301v1.4844l0.74219 1.1152v0.74218l-0.74219 1.1152v5.9453c0 0.74303 0.49561 1.1133 1.4863 1.1133v1.1152c-0.99071 0-1.4863 0.24683-1.4863 0.74219v5.2012c0 0.80495 0.3722 1.6728 1.1152 2.6016l-1.1152 1.8574 0.37109 5.5723-0.37109 1.4863 0.37109 1.1152-0.37109 2.2285c1.4861 7.4303 3.0963 11.146 4.8301 11.146l-0.37305 0.3711c0 1.1146 1.1146 2.9716 3.3437 5.5723 5.7585 4.7678 10.836 7.3693 15.232 7.8027l1.1152-0.74414h1.8574c1.116 0.98 2.107 1.48 2.974 1.48h0.3711l1.4863-0.3711c5.6347 0 11.455-2.4781 17.461-7.4316 0.49536-1.2384 0.99097-1.8574 1.4863-1.8574 1.1145-1.6099 2.9716-2.848 5.5723-3.7148l0.37109 0.37109h0.74414l1.8574-0.74218c0.18576-1.7338 0.68137-2.6016 1.4863-2.6016v-0.74219l-3.7148 1.4863v0.3711l0.3711 0.37109c-0.18577 0.74303-0.92822 1.1152-2.2285 1.1152h-0.37305l-0.3711-1.1152c2.2291-3.5294 3.3438-7.367 3.3438-11.516v-8.1738l-0.3711-2.2285 0.3711-1.8594v-9.2871l0.74218-2.2285-0.74218-1.1152v-0.37109l0.37109-1.8574-0.37109-2.2305v-5.9434l1.1152-0.3711c-0.74303-0.86687-1.1152-2.3537-1.1152-4.459v-5.21l0.37109-2.2285-0.37109-1.8574v-6.3164l0.37109-2.2285-0.37109-1.8574v-2.6016h0.37109v0.74414h2.6016c0-1.2384 0.99124-1.8574 2.9727-1.8574l-1.1152-1.1152c-1.9814 0-2.9727-0.61904-2.9727-1.8574l-1.8574 0.3711-0.3711-1.1152h0.3711v-0.74219c2.2291-0.30959 3.3438-0.80521 3.3438-1.4863 0-0.43344-0.61904-0.80564-1.8574-1.1152 0-0.43343 0.86587-1.0525 2.5996-1.8574l0.37305-0.3711v-0.74219l-0.37305-0.37305-0.37109 0.37305c-1.548 0-2.7861-1.2381-3.7148-3.7148h0.37109l-0.74219-3.7168v-8.916c0-2.4768-1.7337-3.7148-5.2012-3.7148l-0.37109 0.3711h-4.83l0.37109 1.1152v1.1152c-1.7337 1.9195-2.6016 3.1576-2.6016 3.7148h-0.37109l-2.2285-2.2305h-1.1152c-0.37152 0-0.74177 0.49562-1.1133 1.4863h1.1133v1.1152l-1.8574 0.74219 0.3711 1.8574-0.74219 2.2305 0.74219 0.74219h0.37305l0.37109-0.3711v0.3711l0.3711 0.37109c0.74303 0 1.1152 0.37222 1.1152 1.1152l-0.74414 1.1152v0.37109h0.37109l2.2305 1.4863v0.3711l-1.4863 1.1152 0.37109 2.5996v0.3711l-0.37109 0.37305 1.4863 0.3711v1.1133l-1.1152 1.1152h-0.37109v-2.5996l-0.3711 0.3711h-0.37305l-0.37109-0.3711-0.3711 1.4844h-0.3711l-0.37109-0.37109 0.74219-1.1133v-1.1152l-1.1152-1.8574h-1.1133l-1.1152 0.74219 1.8574 1.4863-0.37109 7.4297 0.37109 1.4863v0.37305l-0.37109 0.37109 0.37109 6.3145-0.37109 3.3437 0.37109 2.2305-0.37109 6.6875v10.773l-1.8574 4.457c0 0.49536 0.3722 0.74414 1.1152 0.74414l-0.37305 1.8574 1.4863 0.74218-0.74219 0.74415 0.3711 1.8574v9.2871l0.37109 0.37305-0.37109 0.3711v0.37109l0.74219 2.2285-0.74219 1.8574 0.37109 5.2012v0.74414c-0.80496 5.2012-1.6708 7.8008-2.5996 7.8008 0 0.49536-1.8591 1.7354-5.5742 3.7168v0.3711h0.74414l2.5996-0.3711c0.55726 0.99072 1.6719 1.4844 3.3437 1.4844v1.1152l-4.0859 2.6016 0.74219 0.74219h1.4863l1.1152-0.74219h2.9727v1.4844l-1.8574-0.37109h-0.37305l0.37305 1.4863-1.4863 1.4863h-0.37305l-0.3711-0.37108 0.3711-1.1152v-0.37108h-0.3711l-0.3711 0.37108h-0.74219l-2.2305-0.37108-1.1133 0.37108c-0.61926 0-0.99146-0.49562-1.1152-1.4863l-2.2285 0.74414c-0.99071 0-1.4863-0.3722-1.4863-1.1152v-0.74219l1.1133-1.1152-0.74219-1.4863-1.1152 0.37109-1.8574-0.37109c0 1.2384-0.24683 1.8574-0.74219 1.8574h-0.3711l-0.37305-1.4863 2.6016-2.2285-4.5508-6.6875c-1.8576-2.7244-3.6848-4.0859-5.4805-4.0859h-0.3711v-0.74414h0.3711l1.4863 0.37304 1.4863-0.37304c0.37158 0 0.61842-1.1147 0.74219-3.3438-0.61919-5.2012-1.7338-7.8008-3.3437-7.8008 0.49536-1.1146 0.99097-1.7336 1.4863-1.8574l-0.74219-3.7148v-0.74414c0.43342 0 1.0525 1.9825 1.8574 5.9453h0.3711l0.37109-5.5742v-5.9434l-0.37109-5.9453 0.37109-1.4844-0.37109-2.9727 0.37109-2.2285-0.37109-8.918v-28.236l-0.3711-2.6016 0.3711-1.4863v-4.8281l0.37109-1.8574-0.37109-0.37305 0.74219-2.5996-1.4844-4.8301-0.37305 0.3711-4.457-0.3711h-1.1152l-1.1133 1.1152v5.9434l0.37109 2.6016-0.37109 1.4863-0.74414-0.74414v-9.287l-0.74219-1.1152-4.8301 0.3711zm42.352 0.3711v0.74414h1.1152v-0.74414zm2.6016 5.5723h1.1152v1.4863h-0.37305l-0.74219-0.74219zm13.375 10.031-1.4863 0.37305v0.74219h1.1152zm2.5996 3.7148-0.74218 1.8594 0.37109 0.3711v2.9727l-0.37109 0.3711c2.2291 0.30959 3.3438 0.67984 3.3438 1.1133v1.8574c-0.6192 1.7337-1.487 2.6016-2.6016 2.6016v1.1152h1.1152c0.80494 0 1.6708 0.37025 2.5996 1.1133l0.37304-0.3711c1.9195-0.61919 3.1576-1.2382 3.7148-1.8574h0.3711v0.74219h1.1152l0.3711-1.8574-1.8574-2.2285-1.8574 1.8574c0-0.80495-0.61904-1.424-1.8574-1.8574l-0.38-0.37 0.37-0.371v-0.74414h1.4863l1.11 0.744h1.1152l-0.74413-3.3438 0.74413-0.74414v-0.74219c0-0.49536-0.86781-0.74414-2.6016-0.74414l-3.7148-1.4863zm-53.869 0.37305v1.1133h0.74219v-1.1133zm36.037 1.1133 1.1152 1.1152h-1.122zm38.637 0-0.74219 0.74414v0.74219h1.1152v-1.1133zm2.6016 0c0.24768 1.4861 0.61989 2.2305 1.1152 2.2305h0.3711l0.74219-0.74414v-0.74219l-1.8574-0.74414zm13.375 0.74414-0.3711 0.37109c0.18576 3.4675 0.55601 5.2012 1.1133 5.2012h0.74414l-0.74414-3.7148 0.37109-1.8574zm-35.295 0.74219 1.8574 0.74414-0.74218 0.74219h-0.3711l-0.74414-0.74219zm16.719 3.7148 1.1152 1.1152v-0.3711l-0.74414-0.74414zm-66.131 1.1152 0.74414 0.74219v1.8594l-0.74414 0.74219h-0.372l-0.3711-2.6016zm67.988 0.74219-1.8574 0.37305v1.1133l1.4863 2.6016h2.2285c0.49536 0 0.74414-0.3722 0.74414-1.1152h2.2285c0-0.68112-0.74245-1.1767-2.2285-1.4863l-0.37304 0.37305h-1.4863zm-76.533 0.37305 0.74414 0.74219-1.1152 0.3711-0.3711-0.3711zm-1.4863 1.4863 2.2305 0.74219c0 1.2384 0.37025 2.353 1.1133 3.3437h-0.3711v0.74219h-1.118v-0.369c-2.725-0.619-4.088-1.238-4.088-1.858v-0.74219zm72.818 0-2.2285 0.74219 0.74219 0.74219h1.1152l0.74218-0.74219v-0.74219zm21.176 0v1.1133h0.37304l0.7422-0.74219v-0.37109zm-16.717 0.37109h1.1133l-0.7422 0.74219h-0.37109zm19.318 0v1.4863l0.3711 1.8574h0.37109l0.37109-0.3711-0.37109-0.37305 0.37109-0.3711-0.37109-2.2285zm-87.678 3.7148h1.1133v0.74219h-1.1133zm49.783 0v0.74219l0.74219 0.74414h1.1152l-1.4863-1.4863zm2.5996 2.2285v2.6016h0.3711c0.74303-0.18576 1.1152-0.93016 1.1152-2.2305l-1.1152-0.3711zm-20.434 0.3711h1.1152l0.74219 0.74414-0.74219 0.74219h-1.1152zm-37.523 7.0605 0.37305 0.3711-1.1152 1.1133h-0.3711l-0.3711-0.3711zm3.7168 0h2.5996l0.74414 3.3437c0 0.37152-0.49562 0.74177-1.4863 1.1133l-0.377-0.369h-0.371l-0.3711 0.37109 0.74219 3.7148v0.37305l-0.37109 0.3711 0.37109 0.37109v2.2285l-1.8574-0.74219 0.37305-1.8574v-3.7148l-0.74414-3.3437zm-8.1738 10.773 1.1133 1.4863h-1.4844l-0.37305-1.1152h0.37305zm3.3437 1.1152h1.4863v1.1133c-1.7957 2.4768-3.0357 3.7148-3.7168 3.7148l-0.745-1.107v-1.1152c1.1765 0 2.0443-0.24683 2.6016-0.74219l-0.37305-1.1152zm5.9434 0.3711c0.55726 0 0.92946 1.8571 1.1152 5.5723-0.55728 0-1.0529-1.4869-1.4863-4.459zm88.051 2.5996v1.1152c0 0.37151 0.49366 0.74372 1.4844 1.1152l1.4863-0.37305v-0.74219c0-0.74303-0.74245-1.1152-2.2285-1.1152zm-6.3164 0.3711c-2.4768 0.18576-3.7148 0.55796-3.7148 1.1152v0.74415l1.8574 0.37109c1.3003-0.74303 2.5384-1.1152 3.7148-1.1152l2.6016 0.3711 0.3711-0.3711v0.3711h0.3711l0.37109-0.3711c0-0.49535-1.3615-0.86755-4.0859-1.1152l-0.37109 0.37305zm-5.5723 0.74414c-1.4861 0.86687-2.2305 1.8581-2.2305 2.9726l-1.1133-0.74413h-0.3711v0.37109l0.74219 0.74414c0.24768 1.9814 0.61989 2.9727 1.1152 2.9727h2.5996v0.37109c0 1.2384-0.74244 2.1043-2.2285 2.5996l-0.3711 0.37305-2.2305-0.74414c-0.49536 0-0.74219 0.49561-0.74219 1.4863h-1.1152c-1.2384 0-1.9808 0.3722-2.2285 1.1152v1.4844c3.2198-0.68112 4.8301-1.4236 4.8301-2.2285l1.4863 0.37109c2.2291-1.1765 3.3438-2.1658 3.3438-2.9707 1.7337-0.24768 2.5996-0.61988 2.5996-1.1152-0.80495-0.68112-1.5474-1.9192-2.2285-3.7148v-0.3711l1.1133-1.1152c-1.4861 0-2.2285-0.61903-2.2285-1.8574zm5.2012 1.4863v0.74219l0.74219 0.74413 0.74414-0.74413-0.74414-0.74219zm-40.125 0.37109v0.3711l-0.74219 0.74413v-0.37304zm-45.324 0.3711 0.74219 0.74413-0.74219 0.7422h-0.74414v-0.7422zm4.8301 0.74413c0.68111 0 1.1767 2.1039 1.4863 6.3145h-0.735v-1.8574l-0.74219-1.1133v-1.4863l0.3711-0.37305-0.3711-0.37109zm-7.4316 0.3711 0.74414 2.2285v0.74414c0 1.8576-0.49562 2.8469-1.4863 2.9707l-1.4863-0.74218c0-0.43344 0.61904-0.80564 1.8574-1.1152l-1.4863-2.5996zm89.537 4.457v0.74415l0.37109 0.37109 0.74219-0.74219v-0.37305zm-92.137 2.6016h0.74219v1.1152h-0.74219zm75.789 1.4863-2.5996 0.37109h-2.6016v1.1152h-1.4863c-0.92879-0.74303-1.7947-1.1152-2.5996-1.1152l-0.74414 0.7422v0.37304l4.459 1.4863c2.7244 0 4.705-0.621 5.9434-1.8594v-0.7422zm-66.873 3.3438v1.1133l-1.1152 0.37304-0.74219-0.74414v-0.37109zm-3.3437 0.74219c0.37152 0 0.74372 0.49562 1.1152 1.4863l-0.37109 0.3711v0.37304l-2.6016-0.74414zm59.072 1.8574-0.74414 0.74413v0.3711l0.37109 0.37109 2.6016-0.37109v-0.3711l-0.74413-0.74413zm1.4844 5.9453v0.37109h-0.74219v0.74219h1.8574v-0.74219zm-59.07 0.37109h1.1152v1.1152h-1.1152zm31.207 1.1152h0.3711c0.74303 0.18575 1.1152 0.9282 1.1152 2.2285l3.3437 8.1738 1.8574 6.3144v0.37304c-0.86687-0.55727-3.0962-6.1305-6.6875-16.719zm26.006 2.5996v0.3711c0.74303 0 1.1152 0.24878 1.1152 0.74413l0.74219-0.74413v-0.3711zm-56.471 7.4297h0.74414v1.4863h-1.1152l-0.37109-1.1133h0.37109zm3.3437 0.37305h1.1152l0.74219 1.8574-0.3711 1.1133c-0.74303-0.99071-1.4855-1.4844-2.2285-1.4844v-0.74415zm64.273 0-0.74414 0.74218v0.3711l2.6016-0.3711v-0.74218zm2.5996 2.9707-1.8574 0.37305v0.37109l0.74415 0.74219h0.74218l1.1152-1.1133v-0.37305zm-8.916 0.74414-4.0859 1.1152v1.1133c1.2384 0 2.2277 0.24878 2.9707 0.74413l2.6016-1.1152c-0.18576-1.2384-0.55797-1.8574-1.1152-1.8574zm-58.328 0.74219v0.37305l0.37109 0.37109v0.37109c-1.2384 1.3622-1.8574 2.4769-1.8574 3.3438h-0.74219l-0.74414-0.74414v-2.2285l1.8574 0.37109h0.37305l-0.74414-1.4844zm-7.0586 1.1152h1.1152v0.3711l-0.74414 0.74413zm56.471 1.4863c-0.49536 0.12383-0.99098 0.74287-1.4863 1.8574h0.74414l1.1133-1.1152v-0.3711zm-54.242 2.2285v0.37109h0.74414v0.74414l-1.1152 0.3711-0.74219-0.7422v-0.37304zm4.0879 0h1.1133v1.4863h-0.352l-0.74219-0.7422zm11.145 2.6016h0.37109c-0.37151 0.99071-0.74176 1.4844-1.1133 1.4844h-1.1152zm-9.6582 1.1133 0.74219 0.74414v0.74218l-1.8574 0.3711v-0.3711zm28.605 1.4863v1.1152h-0.74219v-0.3711zm-27.863 1.1152h1.1152v0.74218h-0.37305zm8.5449 0.37108v0.74219l-0.74219 1.1152v0.74414c2.4148 1.0526 3.6529 1.7951 3.7148 2.2285l-2.2305-0.74413v0.37304l-0.74219 0.74219h-0.37109c-1.7337-0.99071-2.6016-2.4776-2.6016-4.459h1.8574zm8.1738 0h1.4863v0.3711l-0.74414 0.74414h-1.4863v-0.37305zm-12.26 1.1152v1.1133l-1.1152 0.37305v0.37109l0.37109 0.37109 0.3711-0.37109 1.1152 0.37109v0.3711c-1.4861 0.55728-2.2285 1.0529-2.2285 1.4863-1.2384-0.18576-1.8574-0.55796-1.8574-1.1152v-0.7422l0.37109-0.37109-0.37109-0.37109v-0.37305c1.2384 0 2.353-0.37025 3.3437-1.1133zm7.4297 0h1.1152c0 0.99071-0.49562 1.6098-1.4863 1.8574l-1.1152-1.1152z"
     fill="#ffffff" /></svg>